<?xml version="1.0" encoding="UTF-8" standalone="no"?>
<!DOCTYPE svg PUBLIC "-//W3C//DTD SVG 1.1//EN" "http://www.w3.org/Graphics/SVG/1.1/DTD/svg11.dtd">
<svg width="100%" height="100%" viewBox="0 0 152 91" version="1.1" xmlns="http://www.w3.org/2000/svg" xmlns:xlink="http://www.w3.org/1999/xlink" xml:space="preserve" xmlns:serif="http://www.serif.com/" style="fill-rule:evenodd;clip-rule:evenodd;stroke-linejoin:round;stroke-miterlimit:2;">
    <g transform="matrix(1,0,0,1,-317.733,-378.776)">
        <g transform="matrix(1,0,0,1,143.549,206.31)">
            <g transform="matrix(1,0,0,1,-55.9914,28.2321)">
                <text x="229.743px" y="234.432px" style="font-family:'Dubai-Bold', 'Dubai', sans-serif;font-weight:700;font-size:36px;fill:rgb(153,159,171);">A<tspan x="253.575px 277.407px 306.387px 329.355px 358.227px " y="234.432px 234.432px 234.432px 234.432px 234.432px ">THENA</tspan></text>
            </g>
            <g transform="matrix(0.0673087,-0.0673087,0.0673087,0.0673087,238.038,309.175)">
                <g>
                    <g transform="matrix(0.572544,0,0,0.572544,373.283,-1369.57)">
                        <g>
                            <g>
                                <g>
                                    <path d="M874.5,908.86L414.62,908.86L390.62,884.86L390.62,424.97L414.62,400.97L874.5,400.97L898.5,424.97L898.5,884.86L874.5,908.86ZM438.62,860.86L850.5,860.86L850.5,448.97L438.62,448.97L438.62,860.86Z" style="fill:rgb(153,159,171);fill-rule:nonzero;"/>
                                </g>
                                <g>
                                    <path d="M765.07,799.43L524.05,799.43L500.05,775.43L500.05,534.4L524.05,510.4L765.07,510.4L789.07,534.4L789.07,775.42L765.07,799.43ZM548.05,751.43L741.07,751.43L741.07,558.4L548.05,558.4L548.05,751.43Z" style="fill:rgb(153,159,171);fill-rule:nonzero;"/>
                                </g>
                            </g>
                            <g transform="matrix(1,0,0,1,66.0049,-1.11873)">
                                <g>
                                    <path d="M470.28,448.97C457.02,448.97 446.28,438.23 446.28,424.97L446.28,290.36L494.28,290.36L494.28,424.98C494.28,438.23 483.54,448.97 470.28,448.97Z" style="fill:rgb(153,159,171);fill-rule:nonzero;"/>
                                </g>
                                <g>
                                    <path d="M586.47,448.97C573.21,448.97 562.47,438.23 562.47,424.97L562.47,290.36L610.47,290.36L610.47,424.98C610.47,438.23 599.72,448.97 586.47,448.97Z" style="fill:rgb(153,159,171);fill-rule:nonzero;"/>
                                </g>
                                <g>
                                    <path d="M702.65,448.97C689.39,448.97 678.65,438.23 678.65,424.97L678.65,290.36L726.65,290.36L726.65,424.98C726.65,438.23 715.91,448.97 702.65,448.97Z" style="fill:rgb(153,159,171);fill-rule:nonzero;"/>
                                </g>
                            </g>
                            <g transform="matrix(1,0,0,1,-3.41061e-13,58.1738)">
                                <g>
                                    <path d="M1009.12,504.64L874.5,504.64C861.24,504.64 850.5,493.9 850.5,480.64C850.5,467.38 861.24,456.64 874.5,456.64L1009.12,456.64L1009.12,504.64Z" style="fill:rgb(153,159,171);fill-rule:nonzero;"/>
                                </g>
                                <g>
                                    <path d="M1009.12,620.82L874.5,620.82C861.24,620.82 850.5,610.08 850.5,596.82C850.5,583.56 861.24,572.82 874.5,572.82L1009.12,572.82L1009.12,620.82Z" style="fill:rgb(153,159,171);fill-rule:nonzero;"/>
                                </g>
                                <g>
                                    <path d="M1009.12,737.01L874.5,737.01C861.24,737.01 850.5,726.27 850.5,713.01C850.5,699.75 861.24,689.01 874.5,689.01L1009.12,689.01L1009.12,737.01Z" style="fill:rgb(153,159,171);fill-rule:nonzero;"/>
                                </g>
                            </g>
                            <g transform="matrix(1,0,0,1,-3.35618,-59.2925)">
                                <g>
                                    <path d="M414.62,620.82L280,620.82L280,572.82L414.62,572.82C427.88,572.82 438.62,583.56 438.62,596.82C438.62,610.08 427.87,620.82 414.62,620.82Z" style="fill:rgb(153,159,171);fill-rule:nonzero;"/>
                                </g>
                                <g>
                                    <path d="M414.62,737.01L280,737.01L280,689.01L414.62,689.01C427.88,689.01 438.62,699.75 438.62,713.01C438.62,726.27 427.87,737.01 414.62,737.01Z" style="fill:rgb(153,159,171);fill-rule:nonzero;"/>
                                </g>
                                <g>
                                    <path d="M414.62,853.2L280,853.2L280,805.2L414.62,805.2C427.88,805.2 438.62,815.94 438.62,829.2C438.62,842.46 427.87,853.2 414.62,853.2Z" style="fill:rgb(153,159,171);fill-rule:nonzero;"/>
                                </g>
                            </g>
                            <g transform="matrix(1,0,0,1,-63.7674,3.35618)">
                                <g>
                                    <path d="M610.47,1019.48L562.47,1019.48L562.47,884.86C562.47,871.6 573.21,860.86 586.47,860.86C599.73,860.86 610.47,871.6 610.47,884.86L610.47,1019.48Z" style="fill:rgb(153,159,171);fill-rule:nonzero;"/>
                                </g>
                                <g>
                                    <path d="M726.65,1019.48L678.65,1019.48L678.65,884.86C678.65,871.6 689.39,860.86 702.65,860.86C715.91,860.86 726.65,871.6 726.65,884.86L726.65,1019.48Z" style="fill:rgb(153,159,171);fill-rule:nonzero;"/>
                                </g>
                                <g>
                                    <path d="M842.84,1019.48L794.84,1019.48L794.84,884.86C794.84,871.6 805.58,860.86 818.84,860.86C832.1,860.86 842.84,871.6 842.84,884.86L842.84,1019.48Z" style="fill:rgb(153,159,171);fill-rule:nonzero;"/>
                                </g>
                            </g>
                        </g>
                        <g transform="matrix(1,0,0,1,749.645,749.64)">
                            <g>
                                <g>
                                    <path d="M874.5,908.86L414.62,908.86L390.62,884.86L390.62,424.97L414.62,400.97L874.5,400.97L898.5,424.97L898.5,884.86L874.5,908.86ZM438.62,860.86L850.5,860.86L850.5,448.97L438.62,448.97L438.62,860.86Z" style="fill:rgb(153,159,171);fill-rule:nonzero;"/>
                                </g>
                                <g>
                                    <path d="M765.07,799.43L524.05,799.43L500.05,775.43L500.05,534.4L524.05,510.4L765.07,510.4L789.07,534.4L789.07,775.42L765.07,799.43ZM548.05,751.43L741.07,751.43L741.07,558.4L548.05,558.4L548.05,751.43Z" style="fill:rgb(153,159,171);fill-rule:nonzero;"/>
                                </g>
                            </g>
                            <g transform="matrix(1,0,0,1,66.0049,-1.11873)">
                                <g>
                                    <path d="M470.28,448.97C457.02,448.97 446.28,438.23 446.28,424.97L446.28,290.36L494.28,290.36L494.28,424.98C494.28,438.23 483.54,448.97 470.28,448.97Z" style="fill:rgb(153,159,171);fill-rule:nonzero;"/>
                                </g>
                                <g>
                                    <path d="M586.47,448.97C573.21,448.97 562.47,438.23 562.47,424.97L562.47,290.36L610.47,290.36L610.47,424.98C610.47,438.23 599.72,448.97 586.47,448.97Z" style="fill:rgb(153,159,171);fill-rule:nonzero;"/>
                                </g>
                                <g>
                                    <path d="M702.65,448.97C689.39,448.97 678.65,438.23 678.65,424.97L678.65,290.36L726.65,290.36L726.65,424.98C726.65,438.23 715.91,448.97 702.65,448.97Z" style="fill:rgb(153,159,171);fill-rule:nonzero;"/>
                                </g>
                            </g>
                            <g transform="matrix(1,0,0,1,-3.41061e-13,58.1738)">
                                <g>
                                    <path d="M1009.12,504.64L874.5,504.64C861.24,504.64 850.5,493.9 850.5,480.64C850.5,467.38 861.24,456.64 874.5,456.64L1009.12,456.64L1009.12,504.64Z" style="fill:rgb(153,159,171);fill-rule:nonzero;"/>
                                </g>
                                <g>
                                    <path d="M1009.12,620.82L874.5,620.82C861.24,620.82 850.5,610.08 850.5,596.82C850.5,583.56 861.24,572.82 874.5,572.82L1009.12,572.82L1009.12,620.82Z" style="fill:rgb(153,159,171);fill-rule:nonzero;"/>
                                </g>
                                <g>
                                    <path d="M1009.12,737.01L874.5,737.01C861.24,737.01 850.5,726.27 850.5,713.01C850.5,699.75 861.24,689.01 874.5,689.01L1009.12,689.01L1009.12,737.01Z" style="fill:rgb(153,159,171);fill-rule:nonzero;"/>
                                </g>
                            </g>
                            <g transform="matrix(1,0,0,1,-3.35618,-59.2925)">
                                <g>
                                    <path d="M414.62,620.82L280,620.82L280,572.82L414.62,572.82C427.88,572.82 438.62,583.56 438.62,596.82C438.62,610.08 427.87,620.82 414.62,620.82Z" style="fill:rgb(153,159,171);fill-rule:nonzero;"/>
                                </g>
                                <g>
                                    <path d="M414.62,737.01L280,737.01L280,689.01L414.62,689.01C427.88,689.01 438.62,699.75 438.62,713.01C438.62,726.27 427.87,737.01 414.62,737.01Z" style="fill:rgb(153,159,171);fill-rule:nonzero;"/>
                                </g>
                                <g>
                                    <path d="M414.62,853.2L280,853.2L280,805.2L414.62,805.2C427.88,805.2 438.62,815.94 438.62,829.2C438.62,842.46 427.87,853.2 414.62,853.2Z" style="fill:rgb(153,159,171);fill-rule:nonzero;"/>
                                </g>
                            </g>
                            <g transform="matrix(1,0,0,1,-63.7674,3.35618)">
                                <g>
                                    <path d="M610.47,1019.48L562.47,1019.48L562.47,884.86C562.47,871.6 573.21,860.86 586.47,860.86C599.73,860.86 610.47,871.6 610.47,884.86L610.47,1019.48Z" style="fill:rgb(153,159,171);fill-rule:nonzero;"/>
                                </g>
                                <g>
                                    <path d="M726.65,1019.48L678.65,1019.48L678.65,884.86C678.65,871.6 689.39,860.86 702.65,860.86C715.91,860.86 726.65,871.6 726.65,884.86L726.65,1019.48Z" style="fill:rgb(153,159,171);fill-rule:nonzero;"/>
                                </g>
                                <g>
                                    <path d="M842.84,1019.48L794.84,1019.48L794.84,884.86C794.84,871.6 805.58,860.86 818.84,860.86C832.1,860.86 842.84,871.6 842.84,884.86L842.84,1019.48Z" style="fill:rgb(153,159,171);fill-rule:nonzero;"/>
                                </g>
                            </g>
                        </g>
                    </g>
                    <g transform="matrix(0.572544,0,0,0.572544,373.283,-1369.57)">
                        <g>
                            <g>
                                <path d="M644.56,1417.08C631.3,1417.08 620.56,1406.34 620.56,1393.08L620.56,1176.3L668.56,1176.3L668.56,1393.08C668.56,1406.34 657.82,1417.08 644.56,1417.08Z" style="fill:rgb(153,159,171);fill-rule:nonzero;"/>
                            </g>
                            <g>
                                <rect x="620.323" y="1369.08" width="241.017" height="48" style="fill:rgb(153,159,171);fill-rule:nonzero;"/>
                            </g>
                        </g>
                    </g>
                </g>
            </g>
        </g>
    </g>
</svg>
